<svg viewBox="77.28 61.35 74.63 72.57" xmlns="http://www.w3.org/2000/svg">
  <path fill="#ffd463" d="m 96.028,101.508 21.834,-9.795 -0.993,-5.61 4.08,-2.671 v -1.425 h -3.749 v -2.582 l -2.335,-0.429 -0.202,3.1 -14.225,0.089 -0.331,-9.35 14.887,0.032 v 2.462 l 2.316,-0.356 0.052,-2.115 3.447,-0.063 -13.093,-11.445 -14.997,11.13 5.514,0.089 0.11,9.528 -4.19,0.089 0.11,1.603 4.08,2.404 z"/>
  <path fill="#ffd463" d="m 96.359,103.823 21.393,-9.795 1.764,10.953 -24.811,10.685 z"/>
  <path fill="#ffd463" d="m 119.626,106.851 -25.362,11.309 -1.654,12.733 -11.91,-0.178 -3.418,2.849 62.083,0.356 -4.962,-3.117 -11.689,-0.089 z m -11.86,14.028 c 3.748,-0.002 3.893,3.337 3.893,3.337 v 6.922 h -7.747 l 0.039,-6.985 c 0,0 0.234,-3.273 3.815,-3.274 z"/>
  <path fill="#ff6600" d="m 151.907,70.266 -23.335,3.511 -18.493,2.783 a 2.426,1.959 0 0 0 -2.252,-1.23 2.426,1.959 0 0 0 -2.426,1.934 l -0.164,0.025 0.164,0.024 v 0 a 2.426,1.959 0 0 0 2.426,1.934 2.426,1.959 0 0 0 2.252,-1.23 l 18.493,2.783 23.335,3.511 v -7.022 z"/>
  <ellipse fill="#ff6600" cx="109.833" cy="126.534" rx="0.992" ry="0.801"/>
</svg>
